<svg width="0" height="0" class="hidden">
  <symbol xmlns="http://www.w3.org/2000/svg" viewBox="0 0 512 512" id="about">
    <rect x="96" y="32" width="320" height="448" rx="48" fill="none" stroke="currentColor" stroke-linejoin="round" stroke-width="32"></rect>
    <path fill="none" stroke="currentColor" stroke-linecap="round" stroke-linejoin="round" stroke-width="32" d="M208 80h96"></path>
    <path d="M333.48 284.51A39.65 39.65 0 00304 272c-11.6 0-22.09 4.41-29.54 12.43s-11.2 19.12-10.34 31C265.83 338.91 283.72 358 304 358s38.14-19.09 39.87-42.55c.88-11.78-2.82-22.77-10.39-30.94zM371.69 448H236.31a12.05 12.05 0 01-9.31-4.17 13 13 0 01-2.76-10.92c3.25-17.56 13.38-32.31 29.3-42.66C267.68 381.06 285.6 376 304 376s36.32 5.06 50.46 14.25c15.92 10.35 26.05 25.1 29.3 42.66a13 13 0 01-2.76 10.92 12.05 12.05 0 01-9.31 4.17z"></path>
  </symbol>
  <symbol version="1.0" xmlns="http://www.w3.org/2000/svg" preserveAspectRatio="xMidYMid meet" viewBox="0 0 816.000000 1050.000000" id="avatar">
    <g transform="translate(0.000000,1050.000000) scale(0.100000,-0.100000)" fill="#000000" stroke="none">
      <path d="M0 5250 l0 -5250 4080 0 4080 0 0 330 c0 366 4 344 -67 315 -19 -8
-44 -15 -55 -15 -11 0 -32 -6 -46 -14 -50 -25 -103 -46 -118 -46 -8 0 -13 -4
-9 -9 3 -5 1 -12 -5 -16 -5 -3 -10 -1 -10 5 0 6 -5 8 -10 5 -6 -4 -8 -11 -5
-16 4 -5 -10 -26 -29 -47 -20 -20 -36 -43 -36 -50 0 -7 -5 -10 -11 -6 -7 4
-10 1 -7 -7 3 -8 -2 -19 -11 -26 -23 -18 -30 -16 -24 7 3 11 9 20 14 20 5 0 9
5 9 11 0 7 8 18 17 26 10 8 12 12 5 8 -18 -9 -15 3 8 28 17 17 18 24 8 32 -16
13 -22 45 -8 45 5 0 10 -9 10 -19 0 -10 7 -22 16 -25 24 -9 29 -7 16 6 -7 7
-12 19 -12 28 0 8 -9 22 -20 30 -11 8 -20 20 -20 26 0 18 -40 25 -47 8 -3 -8
-11 -14 -19 -14 -8 0 -11 -6 -8 -15 4 -9 0 -15 -10 -15 -9 0 -16 -4 -16 -10 0
-11 -36 -50 -46 -50 -4 0 5 15 19 34 15 18 23 37 19 41 -4 5 -2 5 4 2 6 -3 20
10 31 31 11 20 26 36 32 34 7 -1 10 1 7 6 -6 10 233 298 245 294 5 -1 8 2 7 7
-2 4 30 45 71 91 118 130 111 116 111 219 0 98 -1 100 -58 85 -16 -5 -21 -12
-17 -23 3 -8 3 -12 -1 -9 -3 4 -22 1 -41 -7 -20 -8 -44 -15 -55 -15 -15 0 -19
-5 -15 -19 3 -14 1 -18 -9 -14 -27 10 -224 -180 -224 -216 0 -6 -4 -11 -10
-11 -5 0 -10 -5 -10 -11 0 -6 -6 -17 -12 -24 -32 -36 -38 -45 -38 -64 0 -11
-5 -23 -11 -26 -10 -7 -28 -45 -25 -55 0 -3 -12 -19 -28 -35 -18 -20 -30 -26
-33 -18 -3 9 -10 10 -24 3 -11 -6 -19 -7 -19 -2 0 6 9 12 21 15 15 4 20 12 17
29 -2 19 -8 23 -34 20 -30 -3 -32 -1 -37 39 -5 39 0 50 55 138 74 115 152 230
225 329 29 39 51 72 48 72 -9 0 -153 -199 -287 -400 -39 -58 -79 -112 -88
-120 -10 -8 -35 -46 -56 -85 -21 -38 -42 -72 -46 -73 -4 -2 -8 -10 -8 -18 0
-9 -4 -12 -10 -9 -5 3 -7 0 -4 -8 3 -8 -5 -35 -17 -61 -23 -49 -46 -74 -34
-37 4 12 2 21 -4 21 -6 0 -11 -11 -11 -25 0 -17 -6 -25 -17 -25 -17 -1 -17 -2
0 -14 12 -9 14 -16 8 -21 -6 -3 -11 -1 -11 5 0 6 -4 9 -9 6 -9 -6 -31 36 -31
59 0 8 -4 15 -10 15 -5 0 -10 11 -10 25 0 14 -4 25 -9 25 -5 0 -11 14 -15 31
-5 28 -7 29 -22 15 -8 -9 -14 -28 -12 -43 2 -18 -2 -27 -13 -28 -12 -2 -15 4
-13 22 1 14 7 30 13 36 14 14 14 50 0 42 -7 -5 -9 6 -7 31 2 32 7 39 23 37 19
-1 19 0 -2 14 -12 8 -19 21 -16 29 4 11 8 12 19 3 12 -10 13 -9 8 5 -3 9 -12
16 -19 16 -11 0 -11 7 -3 33 5 17 10 38 11 45 0 6 5 12 10 12 5 0 7 9 4 20 -3
12 -1 18 5 14 5 -4 9 4 7 17 -1 13 1 31 4 39 3 8 11 33 18 55 11 38 44 122 73
190 8 17 21 53 31 80 10 28 40 96 66 153 27 56 49 104 49 106 0 24 221 355
241 361 9 3 20 13 23 23 22 60 137 181 196 205 22 10 59 25 82 34 23 10 69 44
102 77 33 32 75 65 93 72 22 10 33 21 33 35 0 18 -4 20 -32 14 -40 -9 -85 -35
-117 -69 -28 -29 -22 -34 14 -10 13 9 30 14 36 12 10 -3 -62 -58 -76 -58 -11
0 4 48 30 99 14 29 25 61 23 71 -4 23 -281 -277 -393 -425 -42 -55 -82 -107
-89 -116 -17 -21 -106 -158 -106 -164 0 -3 -13 -27 -30 -53 -74 -121 -294
-653 -325 -787 -8 -33 -19 -80 -26 -105 -6 -25 -12 -51 -12 -57 0 -7 -6 -13
-12 -13 -9 0 -11 14 -7 46 5 44 4 46 -18 39 -17 -6 -21 -4 -14 6 6 11 4 11
-10 0 -15 -13 -18 -12 -22 7 -4 12 -12 18 -19 16 -16 -6 -29 12 -16 21 6 3 8
12 5 19 -3 8 0 34 7 57 7 24 13 49 15 54 22 94 22 95 3 119 -10 13 -19 34 -19
46 0 11 -4 19 -9 15 -5 -3 -12 -1 -16 5 -3 5 -15 10 -26 10 -20 0 -27 34 -9
45 13 8 13 85 0 85 -5 0 -10 -11 -10 -25 0 -15 -6 -25 -14 -25 -11 0 -13 11
-11 43 3 23 2 35 -1 27 -3 -8 -8 -22 -11 -30 -4 -8 -5 -19 -4 -25 1 -6 -2 -5
-9 1 -13 13 20 81 38 77 6 -2 9 6 7 16 -2 10 4 27 13 38 9 10 28 38 41 63 14
25 43 69 65 99 23 29 48 63 56 75 15 21 125 162 176 224 46 57 -1 24 -56 -39
-40 -45 -57 -58 -71 -54 -11 4 -19 2 -19 -4 0 -6 -4 -11 -10 -11 -5 0 2 16 15
36 19 28 22 40 14 55 -5 11 -7 24 -4 29 3 6 -3 10 -14 10 -27 0 -32 11 -16 33
10 14 14 15 18 5 2 -7 3 -4 1 6 -2 11 2 27 9 35 6 9 1 7 -11 -4 -13 -11 -37
-41 -54 -67 -17 -26 -32 -48 -34 -48 -25 0 140 214 256 331 77 78 198 165 331
238 66 36 82 41 116 35 26 -4 52 -1 77 10 22 9 66 16 102 16 36 0 64 4 64 10
0 6 11 10 24 10 13 0 42 6 64 14 22 8 61 18 86 21 39 6 46 11 46 29 0 12 -14
37 -32 55 -52 53 -214 180 -281 220 -71 42 -249 118 -352 150 -38 13 -72 26
-75 30 -10 15 -162 111 -175 111 -8 0 -17 4 -20 10 -3 5 -14 10 -23 10 -14 -1
-14 -2 3 -11 28 -16 79 -48 161 -102 39 -26 76 -47 81 -47 6 0 17 -7 24 -16
12 -15 3 -15 -101 -10 l-115 6 74 -20 c40 -11 77 -18 81 -15 5 3 6 -4 3 -15
-4 -14 0 -20 11 -20 22 0 46 -63 49 -127 2 -62 1 -62 115 3 110 63 116 68 102
93 -10 20 -9 21 22 16 49 -9 129 -56 253 -150 128 -97 196 -162 174 -169 -28
-8 -175 -26 -214 -26 -23 0 -46 -5 -51 -10 -6 -6 -25 -15 -43 -20 -30 -8 -33
-7 -28 10 7 26 -6 25 -84 -6 -281 -114 -576 -364 -746 -634 -148 -236 -220
-413 -307 -759 -17 -69 -37 -126 -44 -129 -7 -2 -12 5 -12 17 0 35 -28 25 -32
-11 -3 -29 -6 -33 -28 -30 -17 2 -21 0 -12 -6 8 -5 16 -29 19 -53 3 -32 2 -40
-6 -29 -9 13 -11 12 -16 -2 -4 -9 -5 -22 -4 -29 2 -8 -1 -29 -5 -48 -6 -25
-11 -30 -17 -20 -7 9 -8 2 -4 -21 8 -42 -42 -240 -60 -240 -2 0 0 11 5 25 6
17 6 41 0 68 -6 26 -6 43 0 45 6 2 6 10 1 21 -6 10 -6 23 -1 31 5 8 6 18 4 22
-3 4 0 8 6 8 7 0 9 7 6 16 -4 9 -2 22 2 28 17 21 21 61 8 79 -10 13 -11 27 -4
55 5 20 12 48 15 62 7 34 34 123 42 135 3 6 6 12 6 15 0 3 9 27 19 53 12 30
22 44 27 36 4 -7 7 -3 7 12 0 13 2 31 5 39 3 8 8 25 12 38 4 12 11 22 16 22 5
0 8 3 7 7 -4 14 23 83 32 83 5 0 7 7 4 15 -4 8 -1 15 7 15 7 0 9 3 6 6 -18 19
232 451 306 529 10 11 38 42 60 69 121 143 173 195 295 293 50 41 92 78 92 81
0 3 -8 -2 -18 -10 -9 -8 -52 -43 -96 -77 -113 -89 -215 -181 -240 -217 -11
-17 -41 -53 -65 -80 -63 -71 -191 -262 -263 -392 -37 -68 -68 -112 -77 -112
-14 0 -14 -1 -1 -10 14 -9 7 -15 -14 -11 -5 1 -4 -5 3 -13 11 -13 10 -17 -3
-22 -9 -3 -13 -10 -10 -15 12 -20 -15 -7 -29 13 -13 20 -18 21 -36 11 -28 -17
-31 -16 -31 7 0 17 -7 20 -45 20 -25 0 -45 -4 -45 -10 0 -5 -11 -10 -25 -10
-14 0 -25 -4 -25 -9 0 -5 -22 -12 -50 -16 -27 -4 -50 -11 -50 -16 0 -5 5 -9
10 -9 6 0 10 -11 10 -25 0 -14 -4 -25 -10 -25 -5 0 -10 7 -10 16 0 22 -25 11
-26 -12 -1 -10 -2 -26 -3 -33 -1 -19 -17 -3 -24 24 -3 11 -5 -4 -6 -32 -1 -59
-23 -74 -36 -26 l-8 28 -6 -25 c-4 -16 -15 -26 -29 -28 -16 -2 -22 -10 -22
-28 0 -13 5 -24 10 -24 6 0 10 9 10 20 0 13 7 20 20 20 23 0 41 -31 22 -38 -7
-2 -12 -12 -12 -23 0 -24 -30 -100 -47 -117 -7 -7 -13 -22 -13 -33 0 -16 -7
-19 -41 -19 -24 0 -38 4 -34 10 3 5 -3 10 -14 10 -12 0 -21 7 -21 15 0 8 -7
15 -15 15 -8 0 -15 -6 -15 -12 0 -23 -20 16 -20 40 0 16 -6 22 -24 22 -13 0
-26 7 -30 18 -3 9 -13 28 -21 42 -8 14 -15 37 -15 53 0 15 -4 27 -9 27 -5 0
-12 20 -15 45 -4 25 -11 45 -17 45 -5 0 -9 11 -9 25 0 17 -4 23 -15 19 -11 -5
-12 0 -5 25 5 19 5 31 -1 31 -5 0 -9 20 -9 44 0 26 -5 46 -12 49 -10 4 -10 6
0 6 7 1 12 15 12 34 0 21 3 28 9 19 11 -18 43 -12 48 8 4 13 3 13 -7 0 -9 -12
-11 -10 -7 13 2 15 0 30 -6 34 -6 3 -7 1 -3 -5 4 -7 3 -12 -2 -12 -6 0 -9 18
-9 39 1 22 7 38 12 38 6 -1 9 4 7 11 -1 6 3 12 9 12 7 0 22 12 35 28 24 27 25
30 28 55 0 6 8 12 16 12 8 1 14 7 12 14 -1 7 6 24 16 39 42 59 93 163 86 175
-4 6 -4 9 1 5 5 -5 13 1 19 11 6 11 42 60 79 109 57 75 85 102 175 164 59 42
141 95 182 118 94 54 274 175 292 197 12 15 9 15 -27 8 -67 -13 -78 -11 -92
15 -12 24 -10 28 45 78 31 28 100 87 152 129 52 42 122 108 155 146 33 37 66
75 73 83 7 8 10 14 6 14 -4 0 -48 -42 -98 -93 -50 -51 -147 -138 -216 -192
-69 -54 -127 -101 -130 -104 -3 -3 -32 -28 -65 -56 -82 -69 -340 -307 -394
-363 -24 -26 -82 -99 -129 -162 -47 -63 -131 -171 -187 -240 -111 -137 -154
-198 -240 -340 -32 -52 -68 -107 -80 -122 -23 -27 -23 -27 -21 -4 1 16 6 22
15 18 9 -3 12 -1 7 6 -4 7 4 23 18 37 15 15 21 27 14 31 -7 4 -5 10 6 16 9 5
16 20 16 33 0 15 6 25 14 25 9 0 12 7 9 20 -3 11 0 20 6 20 6 0 11 -5 11 -12
0 -6 2 -9 5 -6 3 3 1 17 -6 31 -9 19 -18 24 -40 23 -35 -3 -63 -35 -47 -54 8
-10 6 -11 -11 -4 -13 4 -23 10 -24 12 -4 9 120 190 127 185 3 -3 4 -2 1 1 -9
13 192 281 285 379 32 33 102 112 156 176 54 63 128 147 163 185 l63 70 52 -7
c58 -7 72 -4 104 24 20 19 48 90 44 110 -2 5 2 6 7 3 11 -7 25 30 16 44 -4 6
1 7 12 3 10 -3 14 -2 10 2 -4 5 3 15 15 22 42 23 1 13 -67 -16 -136 -58 -255
-167 -425 -393 -52 -67 -105 -136 -118 -153 l-25 -30 7 29 c4 17 17 43 29 60
11 16 16 26 9 22 -16 -9 -15 -1 1 16 24 27 87 149 87 170 0 11 144 302 160
323 4 6 29 64 55 130 26 66 62 152 80 190 18 39 36 84 39 100 6 28 5 29 -9 11
-23 -30 -30 -11 -17 45 10 40 9 56 -2 83 -19 45 -76 89 -141 110 -30 9 -55 20
-55 23 0 13 151 -8 207 -28 81 -30 149 -103 255 -274 116 -187 177 -270 190
-257 7 7 -9 37 -49 94 -214 301 -225 321 -148 277 43 -25 144 -52 189 -50 48
2 114 -19 231 -74 50 -23 103 -45 119 -49 15 -4 26 -9 23 -12 -3 -3 -21 -1
-41 4 -37 11 -45 5 -25 -15 7 -7 25 -9 40 -6 33 6 207 -56 188 -68 -7 -4 -3
-9 12 -13 75 -21 98 -30 92 -39 -3 -6 -1 -7 5 -3 6 3 26 0 44 -7 l33 -14 -44
1 c-27 1 -46 -4 -48 -11 -3 -9 10 -13 49 -13 29 0 69 -4 88 -10 19 -5 47 -11
62 -14 15 -2 74 -22 130 -42 94 -35 149 -67 328 -193 20 -13 20 16 20 3773 l0
3786 -4080 0 -4080 0 0 -5250z m3680 4250 c-8 -5 -19 -10 -25 -10 -5 0 -3 5 5
10 8 5 20 10 25 10 6 0 3 -5 -5 -10z m790 -10 c85 -14 100 -19 100 -32 0 -11
-23 -8 -115 16 -33 8 -78 16 -100 17 -34 1 -36 2 -15 8 27 8 30 8 130 -9z
m950 -95 c24 -12 30 -22 30 -48 0 -56 -14 -62 -42 -20 -45 69 -51 83 -33 83 9
0 29 -7 45 -15z m-151 -37 c0 -35 -2 -39 -9 -21 -8 19 -3 63 6 63 2 0 4 -19 3
-42z m-73 -13 c9 -14 13 -29 9 -33 -7 -7 -45 34 -45 49 0 18 20 9 36 -16z
m-1936 -158 c0 -2 -12 -14 -27 -28 l-28 -24 24 28 c23 25 31 32 31 24z m2295
-487 c-3 -5 -13 -10 -21 -10 -8 0 -12 5 -9 10 3 6 13 10 21 10 8 0 12 -4 9
-10z m176 -31 c16 -11 29 -25 29 -30 0 -18 -27 -8 -55 21 -33 34 -17 40 26 9z
m-85 -324 c10 -24 -5 -36 -27 -24 -16 8 -18 13 -8 25 15 18 28 18 35 -1z
m-1446 -48 c-18 -23 -38 -48 -43 -54 -18 -25 8 -13 41 18 22 21 37 28 44 21 6
-6 18 -2 35 14 14 13 31 24 37 24 6 0 4 -6 -4 -13 -16 -13 -50 -62 -50 -73 0
-3 21 11 47 32 25 21 58 39 72 41 14 1 37 5 51 8 22 6 19 1 -19 -36 -24 -23
-35 -39 -25 -34 11 4 33 9 49 10 17 1 57 12 90 24 33 13 71 25 84 28 l25 6
-22 -23 c-29 -31 -23 -34 26 -15 22 9 53 15 69 13 26 -4 22 -7 -37 -36 -60
-30 -58 -46 3 -23 13 5 47 16 76 25 46 13 52 14 47 1 -7 -19 -10 -20 86 15 80
28 82 29 54 6 -15 -13 -51 -36 -80 -50 l-51 -27 40 8 c22 4 85 8 140 7 113 -1
179 -17 295 -72 l75 -35 -35 -6 -35 -6 55 -26 c61 -29 130 -105 190 -211 39
-71 28 -75 -20 -9 -19 27 -36 48 -38 46 -5 -4 29 -70 70 -136 22 -36 39 -81
47 -125 7 -38 18 -75 24 -83 10 -12 9 -13 -3 -6 -8 4 -23 15 -33 23 -28 25
-31 6 -4 -30 36 -47 45 -88 22 -104 -16 -12 -16 -18 -6 -60 14 -55 9 -67 -13
-27 -16 27 -16 27 -12 3 18 -101 16 -135 -5 -87 -7 16 -8 0 -4 -57 5 -79 5
-79 -15 -61 -24 22 -25 16 -5 -32 20 -48 19 -50 -10 -23 -23 22 -25 22 -25 4
0 -11 12 -37 27 -59 l27 -40 -36 27 c-32 25 -35 25 -31 8 3 -11 9 -23 14 -26
20 -12 7 -23 -22 -17 -30 6 -31 5 -19 -17 7 -13 30 -42 51 -65 43 -47 47 -55
23 -55 -12 0 -8 -8 13 -27 104 -99 189 -357 186 -563 -3 -174 -33 -514 -52
-605 -18 -84 -26 -121 -50 -250 -5 -27 -24 -108 -41 -180 -29 -119 -32 -146
-35 -315 -2 -163 -6 -203 -35 -339 -35 -170 -81 -312 -111 -344 -10 -11 -19
-26 -19 -33 0 -7 -4 -14 -8 -16 -4 -1 -20 -23 -34 -48 -14 -25 -49 -70 -77
-100 -28 -30 -50 -59 -51 -63 0 -4 -10 -18 -22 -31 -13 -12 -39 -42 -58 -66
-52 -65 -118 -129 -154 -150 -17 -10 -30 -23 -29 -29 2 -6 0 -11 -5 -11 -4 0
-25 -16 -46 -35 -22 -19 -46 -35 -53 -35 -7 0 -19 -15 -27 -33 -11 -29 -19
-34 -47 -35 -23 0 -41 -9 -54 -25 -20 -24 -52 -42 -68 -38 -5 1 -6 -3 -2 -8 3
-6 13 -7 23 -4 9 3 14 3 10 -2 -4 -4 -2 -15 5 -23 9 -13 9 -14 0 -8 -7 4 -13
3 -13 -3 0 -5 -14 -12 -30 -16 -25 -5 -29 -10 -20 -20 10 -11 8 -13 -9 -10
-11 2 -23 0 -26 -5 -3 -4 -14 -6 -25 -3 -22 6 -26 -7 -8 -25 7 -7 9 -12 4 -12
-4 0 0 -7 9 -16 20 -21 13 -29 -14 -15 -26 15 -58 -13 -53 -46 5 -32 -9 -29
-58 12 -45 38 -81 49 -40 12 28 -25 82 -98 60 -81 -27 21 -60 27 -60 11 0 -8
-6 -17 -13 -20 -10 -4 -21 16 -38 61 -13 37 -22 70 -21 75 1 4 -3 7 -8 7 -14
0 -13 -8 10 -70 25 -68 26 -88 5 -70 -9 7 -14 19 -11 27 3 8 2 12 -3 8 -5 -3
-12 1 -14 7 -6 14 -10 -19 -9 -66 1 -44 -7 -26 -32 74 -13 50 -28 96 -32 100
-5 5 -33 10 -61 12 -29 2 -53 6 -53 9 0 3 -17 11 -38 17 -21 7 -59 25 -83 42
-24 16 -47 30 -51 30 -20 0 -15 -46 10 -111 37 -92 80 -244 89 -307 9 -74 -3
-47 -31 68 -23 92 -124 330 -140 330 -7 0 2 -22 49 -129 20 -46 39 -95 41
-110 3 -14 7 -33 9 -41 2 -8 -3 -26 -11 -40 -15 -25 -15 -25 -8 -1 4 15 2 21
-4 17 -7 -4 -9 6 -6 29 2 19 0 35 -5 35 -5 0 -12 10 -16 23 -9 28 -6 18 -45
121 l-35 89 -14 -48 c-12 -45 -11 -54 7 -109 31 -88 54 -185 50 -210 -7 -48
-88 248 -88 321 0 18 -4 33 -10 33 -5 0 -10 -2 -10 -4 0 -28 26 -175 41 -234
10 -41 19 -98 18 -126 -1 -58 -1 -58 -25 49 -12 53 -19 73 -24 60 -6 -17 -7
-17 -13 -1 -4 10 -8 34 -8 54 -1 20 -5 51 -10 67 -5 20 -7 2 -3 -52 2 -45 0
-84 -5 -87 -5 -3 -15 31 -22 77 l-13 82 -12 -50 c-6 -27 -24 -74 -38 -102 -29
-56 -42 -70 -26 -27 6 15 6 23 1 19 -12 -7 -2 66 10 80 5 5 9 21 9 36 0 35 24
91 35 82 4 -5 5 -3 2 3 -4 7 0 28 8 48 25 60 6 40 -25 -26 -29 -61 -30 -62
-30 -28 0 19 9 51 20 70 16 27 17 30 3 14 -10 -12 -23 -30 -30 -40 -11 -18
-12 -17 -12 6 0 25 16 49 59 85 l23 20 -7 -20 c-5 -14 1 -11 19 10 l26 30 -16
-33 c-9 -19 -14 -36 -11 -39 3 -3 10 5 15 19 9 25 26 41 52 50 11 4 5 -16 -22
-70 -21 -43 -39 -88 -42 -102 -2 -14 -2 -19 0 -12 3 7 9 10 14 7 5 -3 6 1 3 9
-3 9 -1 16 5 16 6 0 11 9 11 20 0 11 9 29 20 40 11 11 23 34 26 49 6 27 44 53
44 30 0 -5 -7 -9 -15 -9 -8 0 -15 -4 -15 -10 0 -5 5 -10 10 -10 6 0 13 -1 17
-2 4 -2 10 10 13 26 4 24 13 31 60 45 30 10 69 25 86 34 42 22 152 95 187 124
l29 23 -41 0 c-42 0 -77 14 -96 38 -8 10 -68 16 -220 23 -381 17 -525 34 -525
61 0 5 -9 21 -20 36 -36 48 -17 90 50 114 106 37 152 42 231 23 59 -13 97 -15
186 -10 105 6 117 5 194 -20 55 -19 93 -26 119 -22 25 3 46 0 59 -10 14 -9 42
-14 84 -12 34 1 74 -3 90 -9 38 -16 153 -42 184 -42 25 0 25 1 9 19 -16 18
-16 20 3 33 12 8 18 18 14 22 -4 4 0 4 10 0 10 -3 17 -1 17 5 0 6 13 11 29 11
16 0 37 3 46 6 14 6 10 10 -15 21 -18 7 -30 16 -27 19 3 3 14 1 25 -5 40 -22
117 -10 215 31 26 11 47 24 47 28 0 4 -26 13 -58 19 -32 6 -67 18 -78 27 -18
14 -18 15 6 7 14 -4 57 -8 95 -8 82 0 137 26 198 94 41 45 52 90 18 71 -11 -5
-23 -15 -26 -20 -15 -24 -86 -50 -137 -50 -78 0 -143 35 -231 123 -63 64 -81
76 -124 85 -27 6 -83 27 -123 46 -104 50 -123 46 -79 -16 12 -16 19 -31 17
-33 -2 -2 -46 17 -98 41 -52 25 -118 54 -146 65 -28 11 -59 28 -68 38 -17 18
-15 20 26 49 24 16 60 46 81 66 l37 37 0 85 c0 106 -40 220 -95 274 -36 35
-50 23 -16 -14 40 -45 60 -102 70 -198 13 -115 13 -128 4 -126 -5 0 -15 -2
-25 -6 -9 -4 -30 0 -50 10 -51 27 -118 34 -152 17 l-29 -15 5 30 c3 22 1 29
-9 25 -7 -3 -13 -9 -13 -14 0 -5 -3 -8 -7 -7 -5 1 -23 -6 -42 -16 -49 -26
-133 -15 -229 31 -64 30 -76 40 -93 76 -23 52 -25 150 -4 201 10 23 17 84 20
173 6 153 28 289 79 475 19 68 38 146 43 174 13 75 1 242 -21 284 -24 47 -27
67 -11 67 7 0 11 -6 8 -14 -7 -17 47 -18 70 0 9 6 24 32 33 57 28 75 32 422 5
406 -9 -6 -24 -195 -22 -266 1 -33 -1 -41 -9 -30 -8 12 -10 11 -10 -7 0 -13
-4 -23 -9 -23 -5 0 -17 -22 -27 -50 -10 -27 -21 -45 -25 -39 -3 6 -9 10 -13
10 -21 -3 -23 2 -14 38 9 36 7 43 -28 95 -20 31 -38 56 -40 56 -1 0 3 -13 9
-29 8 -21 8 -36 0 -53 -11 -22 -11 -22 -10 -2 1 12 -5 41 -12 65 -7 24 -15 50
-17 57 -6 23 -24 12 -24 -15 l0 -27 -29 28 c-18 17 -34 25 -42 21 -8 -5 -10
-4 -5 3 4 7 1 12 -6 12 -7 0 -24 3 -38 7 -22 6 -24 5 -11 -10 16 -21 -2 -23
-21 -3 -10 10 -48 14 -137 15 -95 2 -144 8 -219 27 -53 14 -115 30 -137 35
-67 17 -122 38 -99 39 12 0 38 -7 59 -16 74 -31 43 -6 -59 47 l-105 53 -48
-12 c-26 -7 -65 -25 -87 -40 -21 -15 -58 -39 -82 -53 -25 -14 -62 -43 -84 -64
-34 -34 -39 -36 -35 -16 2 13 9 29 16 37 6 8 9 14 6 14 -7 0 20 91 62 211 17
48 37 129 46 180 26 159 69 312 93 328 4 3 21 24 37 46 17 22 35 43 41 47 5 4
30 25 55 48 24 23 56 48 72 56 15 8 27 19 27 24 0 6 4 10 10 10 5 0 54 29 107
63 54 35 143 90 198 122 55 32 165 97 245 145 195 117 188 114 206 99 11 -9
14 -8 14 9 0 26 2 28 180 122 85 46 172 94 193 107 36 23 37 23 37 3 0 -22 1
-23 24 -14 9 3 16 14 16 23 0 14 2 14 10 1 8 -12 10 -12 16 4 5 12 9 14 14 6
5 -8 14 -2 26 19 14 23 21 28 31 19 9 -7 13 -7 13 1 0 23 40 51 75 51 20 0 35
5 35 12 0 6 3 8 7 5 3 -4 -9 -26 -27 -50z m268 -7 c-7 -11 -19 -22 -28 -25 -8
-4 -4 5 9 19 29 31 36 33 19 6z m537 -40 c-11 -5 -31 -9 -45 -9 -20 -1 -22 1
-10 9 8 5 29 9 45 9 26 0 27 -2 10 -9z m622 -14 c-6 -19 -34 -18 -39 2 -4 15
-1 18 19 14 13 -2 22 -10 20 -16z m-432 -26 c4 -6 -6 -7 -27 -3 -44 8 -48 13
-10 13 17 0 34 -4 37 -10z m640 -486 c15 -20 36 -59 47 -88 l19 -51 -21 25
c-45 54 -93 150 -76 150 2 0 16 -16 31 -36z m-85 -150 c21 -68 27 -144 11
-144 -5 0 -14 39 -21 88 -6 48 -14 95 -16 105 -3 9 -3 17 0 17 3 0 14 -30 26
-66z m-23 -1116 c-3 -7 -5 -2 -5 12 0 14 2 19 5 13 2 -7 2 -19 0 -25z m-2904
-71 c20 -9 37 -13 37 -9 0 3 5 1 12 -6 7 -7 26 -13 43 -13 24 -1 26 -3 7 -6
-22 -4 -23 -5 -5 -18 17 -13 16 -15 -17 -28 -19 -8 -72 -18 -117 -21 -46 -4
-97 -11 -114 -16 -35 -10 -53 -5 -42 13 4 7 8 18 9 25 3 20 16 29 21 15 6 -17
23 -17 23 0 0 8 -15 14 -37 15 -44 3 -56 10 -47 25 4 7 4 9 -1 5 -4 -4 -14 -3
-22 3 -11 9 -11 15 -1 27 17 19 196 12 251 -11z m786 -32 c0 -26 -2 -27 -9
-10 -5 11 -9 31 -9 45 -1 20 1 22 9 10 5 -8 9 -28 9 -45z m-725 -94 c-30 -13
-125 -20 -118 -10 3 5 9 7 13 5 4 -3 20 -2 36 2 16 5 42 9 59 10 26 1 28 0 10
-7z m189 -9 c12 -10 18 -12 37 -12 6 0 10 -5 10 -11 0 -8 -5 -8 -15 1 -8 7
-15 8 -15 3 0 -4 -18 -7 -40 -5 -22 2 -37 8 -34 13 3 5 -13 9 -35 9 -24 0 -41
5 -41 11 0 14 114 6 133 -9z m2987 -12 c10 -5 23 -24 29 -41 10 -30 10 -31
-15 -25 -25 7 -25 6 -9 -23 15 -29 14 -31 -17 -67 -18 -21 -43 -48 -55 -60
-13 -13 -23 -28 -23 -34 0 -6 -4 -9 -8 -6 -5 3 -9 0 -9 -7 0 -7 -19 -43 -43
-82 -47 -77 -120 -173 -120 -158 0 5 3 13 7 17 4 3 8 12 10 19 53 229 67 277
97 331 76 136 107 162 156 136z m-3034 -131 c5 -8 9 -7 14 1 10 16 43 5 38
-13 -3 -6 -23 -13 -46 -15 -37 -3 -42 -1 -42 17 0 22 24 29 36 10z m-214 -53
c6 -68 45 -132 93 -152 41 -17 136 -18 185 -3 71 22 136 26 248 15 39 -4 72
-3 72 1 0 4 -14 32 -30 62 -17 30 -30 56 -30 59 0 2 12 -4 28 -14 24 -16 25
-16 13 -1 -21 27 -5 32 33 12 33 -18 35 -18 74 2 36 18 41 18 44 4 12 -55 -43
-201 -97 -261 -49 -54 -97 -143 -115 -217 -17 -63 -20 -111 -20 -280 l0 -204
-44 -62 -44 -62 13 -50 c7 -27 16 -72 20 -100 10 -68 38 -120 86 -154 l40 -29
-83 -45 c-94 -51 -123 -62 -156 -58 -12 1 -39 -7 -58 -18 -40 -24 -44 -25 -44
-11 0 6 15 17 33 25 l32 14 -38 1 c-43 0 -175 -51 -227 -88 -19 -14 -54 -42
-76 -63 -75 -67 -122 -91 -188 -95 -57 -4 -59 -3 -38 12 22 15 30 44 12 44 -5
0 -7 7 -4 15 4 8 2 21 -4 28 -5 6 -13 27 -17 46 -4 18 -15 48 -25 65 -10 17
-16 39 -15 48 2 10 -2 16 -8 15 -6 -1 -12 5 -12 13 -2 22 -22 67 -35 75 -5 3
-7 11 -4 17 4 6 1 16 -7 22 -17 14 -41 76 -28 76 17 0 9 19 -12 25 -15 5 -17
10 -9 20 8 9 6 14 -5 19 -9 3 -13 10 -10 16 10 16 -15 118 -32 136 -13 12 -13
18 -4 24 8 4 9 10 3 14 -5 3 -13 46 -16 96 -4 49 -11 92 -16 95 -4 2 -8 23 -8
46 -1 23 -5 46 -10 51 -5 5 -7 30 -4 54 3 25 0 55 -7 67 -15 29 0 239 24 321
13 48 14 60 3 67 -10 7 -10 9 0 9 6 0 12 5 12 11 0 5 10 31 22 57 12 26 22 56
22 67 1 11 7 19 14 17 10 -2 10 2 2 18 -6 11 -7 20 -3 20 31 -1 55 -18 83 -62
36 -56 192 -223 224 -240 39 -21 87 -26 164 -17 87 11 339 67 362 81 11 6 9 7
-7 3 -12 -3 -49 -6 -82 -6 -34 0 -64 -5 -67 -10 -3 -6 -12 -5 -21 3 -12 10
-17 9 -27 -4 -17 -23 -46 -26 -59 -6 -17 26 35 88 73 88 28 0 29 -2 23 -32 -6
-29 -5 -31 9 -20 9 7 18 26 20 42 4 30 4 30 -41 30 -113 0 -300 57 -315 95
-12 32 -6 92 10 106 17 14 84 48 95 49 4 0 9 -24 11 -54z m3314 -63 c16 -192
12 -260 -23 -343 -53 -129 -70 -173 -93 -245 -20 -61 -42 -113 -150 -350 -13
-27 -24 -52 -25 -55 -1 -3 -9 -22 -18 -44 -9 -21 -17 -44 -17 -50 0 -25 -42
-77 -74 -93 -30 -14 -37 -14 -52 -2 -13 11 -15 25 -10 79 9 83 45 301 53 313
3 6 11 -5 17 -24 15 -46 35 -43 72 14 17 26 58 75 91 110 60 62 103 131 103
164 0 10 -9 0 -21 -22 -26 -50 -99 -126 -112 -118 -6 3 -7 1 -3 -5 4 -7 2 -12
-4 -12 -10 0 -22 -8 -56 -38 -18 -17 -44 -8 -45 15 -4 73 3 99 33 125 l31 27
-17 88 c-19 99 -18 116 9 156 16 25 23 28 52 22 37 -7 44 7 16 37 -15 17 -15
21 7 61 36 65 82 127 95 127 13 0 45 -84 45 -117 0 -12 5 -25 10 -28 6 -3 10
3 10 14 0 10 5 21 10 23 11 3 40 168 40 231 0 75 18 34 26 -60z m-2802 -30 c4
-9 -8 -13 -42 -13 -26 -1 -65 -7 -87 -15 -22 -8 -41 -15 -42 -15 -1 0 9 16 22
36 13 20 27 51 31 70 l6 33 53 -42 c30 -23 56 -48 59 -54z m-441 -178 c-9 -15
-11 -15 -23 0 -12 14 -12 18 1 25 19 12 33 -4 22 -25z m2891 -130 c-4 -8 -8
-15 -10 -15 -2 0 -4 7 -4 15 0 8 4 15 10 15 5 0 7 -7 4 -15z m-17 -102 c-2
-16 -4 -5 -4 22 0 28 2 40 4 28 2 -13 2 -35 0 -50z m-3195 -1367 c36 -14 71
-26 78 -26 6 0 37 -19 68 -42 64 -48 99 -69 155 -94 23 -11 37 -24 37 -35 0
-10 4 -20 10 -24 12 -8 1 -35 -15 -35 -7 0 -20 -10 -28 -22 -15 -21 -16 -21
-16 -4 -1 18 -2 18 -19 3 -10 -10 -30 -17 -43 -17 -14 0 -31 -6 -38 -12 -10
-11 -14 -10 -22 4 -5 10 -16 15 -24 12 -9 -4 -15 0 -15 10 0 9 -5 16 -11 16
-14 0 -39 25 -39 39 0 6 -6 11 -14 11 -26 0 -106 125 -106 166 0 12 -7 24 -15
28 -8 3 -15 13 -15 21 0 10 -5 13 -12 9 -6 -4 -8 -3 -5 3 4 6 0 13 -7 16 -8 3
-20 16 -26 28 -12 21 -11 21 21 -3 19 -14 64 -37 101 -52z m-569 -54 c-22 -20
-72 -64 -110 -98 l-70 -61 -84 -6 c-46 -3 -115 -15 -153 -26 -66 -19 -227
-107 -327 -177 -61 -43 -85 -47 -81 -14 3 20 2 22 -11 12 -11 -10 -17 -9 -27
3 -10 12 -10 15 3 15 8 0 29 14 47 30 18 17 37 30 42 30 6 0 56 16 112 36 55
19 107 37 115 40 8 2 12 7 9 9 -6 6 -252 -49 -304 -68 -21 -8 -65 -25 -98 -36
-32 -12 -60 -20 -62 -18 -8 7 283 114 362 132 72 17 106 28 231 79 114 46 423
154 443 155 3 0 -14 -16 -37 -37z m787 -18 c0 -2 -9 -4 -20 -4 -11 0 -20 4
-20 9 0 5 9 7 20 4 11 -3 20 -7 20 -9z m3240 -115 c11 -21 16 -39 11 -39 -5 0
-13 9 -16 20 -3 11 -11 20 -17 20 -6 0 -8 3 -5 6 3 4 2 16 -4 27 -8 14 -8 18
0 13 6 -4 20 -25 31 -47z m-4240 -63 c-51 -49 -460 -268 -460 -247 0 17 211
209 248 227 36 17 111 30 187 33 34 1 37 -1 25 -13z m3780 -16 c0 -5 -5 -10
-11 -10 -5 0 -7 5 -4 10 3 6 8 10 11 10 2 0 4 -4 4 -10z m-2536 -38 c-5 -4
-12 -11 -15 -15 -3 -5 -9 -2 -12 5 -3 9 3 14 15 15 11 1 16 -1 12 -5z m2518
-24 c-7 -7 -12 -8 -12 -2 0 14 12 26 19 19 2 -3 -1 -11 -7 -17z m-2552 -50 c0
-10 -2 -18 -5 -18 -2 0 -9 8 -14 18 -8 14 -6 19 5 19 7 0 14 -9 14 -19z m98
-26 c10 -11 13 -12 8 -2 -6 8 17 -10 50 -41 32 -31 93 -76 134 -99 41 -23 78
-47 82 -53 4 -7 8 -8 8 -2 0 5 7 -1 16 -13 8 -12 20 -20 25 -17 11 7 37 -6 38
-20 1 -5 5 -10 10 -10 5 0 13 -3 17 -7 4 -5 -8 -9 -27 -9 -19 -1 -43 -3 -54
-5 -11 -2 -49 -8 -85 -14 -36 -6 -77 -12 -92 -13 -14 -1 -24 -5 -22 -9 6 -9
-36 -32 -44 -24 -3 3 0 6 6 6 7 0 12 4 12 9 0 5 -14 9 -31 9 -20 -1 -35 5 -41
16 -5 9 -13 14 -17 12 -12 -8 -44 55 -43 85 0 16 -3 31 -8 34 -5 3 -2 18 5 33
14 28 10 72 -6 72 -5 0 -9 11 -9 25 0 14 5 25 10 25 6 0 9 3 9 8 -5 28 25 30
49 4z m3191 -148 c48 -55 91 -138 98 -191 6 -44 -31 -141 -123 -327 -74 -149
-254 -446 -270 -446 -18 0 32 313 57 362 5 9 21 29 36 45 129 134 253 304 253
347 0 25 -53 127 -95 182 -13 17 -21 35 -17 39 4 5 1 5 -5 1 -7 -4 -13 -2 -13
4 0 6 -4 9 -9 6 -12 -8 -9 27 3 36 15 10 40 -7 85 -58z m-31 -81 c31 -37 62
-98 62 -121 0 -27 -54 -108 -129 -191 -36 -40 -76 -85 -89 -100 l-23 -26 5 80
c4 72 26 273 41 382 l6 42 52 -19 c29 -11 62 -32 75 -47z m-577 -104 c83 -56
158 -134 159 -166 0 -7 4 -13 9 -13 7 0 21 -62 22 -97 1 -5 4 -12 9 -18 4 -5
7 -33 5 -62 -2 -41 0 -50 11 -46 10 4 14 -3 14 -21 0 -21 5 -26 23 -26 30 0
60 32 51 54 -3 9 -1 16 5 16 6 0 11 9 11 20 0 11 5 20 10 20 6 0 10 -9 10 -19
0 -11 -4 -23 -10 -26 -5 -3 -10 -11 -10 -16 0 -6 4 -8 8 -5 10 6 1 -71 -19
-159 -7 -33 -12 -63 -11 -66 1 -4 -3 -35 -9 -70 -6 -35 -12 -79 -14 -97 -4
-40 -33 -203 -46 -252 -4 -19 -21 -50 -37 -69 l-29 -35 -49 29 c-27 15 -51 31
-54 35 -3 4 -32 15 -65 25 -72 22 -320 26 -400 7 -74 -17 -111 -21 -125 -12
-7 5 2 10 26 15 21 3 47 13 58 21 11 8 33 14 48 14 32 0 34 5 13 26 -10 10
-15 35 -15 70 0 33 -4 54 -11 54 -7 0 -9 10 -7 25 4 19 1 25 -13 25 -13 0 -19
-9 -21 -32 -3 -28 -5 -30 -13 -14 -5 11 -4 26 3 37 7 10 12 26 12 34 0 8 5 15
10 15 6 0 10 11 10 25 0 16 6 25 15 25 8 0 15 9 15 21 0 13 -4 18 -12 13 -10
-6 -10 -4 -2 7 6 8 10 24 9 36 -1 12 3 21 8 20 11 -2 29 52 21 65 -3 5 0 7 8
6 8 -2 12 5 11 17 -1 11 0 14 3 8 8 -18 24 -16 24 2 0 17 20 16 35 -3 7 -9 9
5 7 43 -2 30 -9 55 -14 55 -6 0 -8 -14 -5 -34 5 -29 3 -34 -12 -33 -15 1 -17
7 -9 46 4 25 12 47 17 50 11 8 21 141 10 141 -5 0 -9 -7 -9 -15 0 -8 -3 -15
-8 -15 -4 0 -6 20 -4 43 3 29 -1 49 -11 59 -17 17 -3 53 16 41 9 -5 9 -3 0 8
-9 11 -8 18 1 31 7 10 16 15 19 11 4 -3 7 2 7 12 0 19 45 78 119 157 l44 47
19 -25 c11 -14 60 -52 109 -85z m-2161 81 c0 -5 -7 -7 -15 -4 -8 4 -15 8 -15
10 0 2 7 4 15 4 8 0 15 -4 15 -10z m54 -32 c-34 -57 -77 -119 -103 -148 l-31
-35 32 58 c18 33 48 76 66 98 33 38 51 52 36 27z m39 -21 c-34 -36 -80 -129
-98 -198 -9 -35 -21 -72 -26 -81 -5 -10 -6 -24 -3 -33 3 -8 1 -15 -5 -15 -16
0 -15 7 19 135 30 116 61 181 101 209 31 21 37 11 12 -17z m77 27 c0 -4 -20
-35 -45 -70 -25 -34 -45 -66 -45 -71 0 -4 -11 -29 -25 -55 -14 -26 -27 -65
-29 -85 -4 -35 -21 -93 -29 -93 -5 0 0 44 8 62 4 9 4 21 1 27 -8 13 12 101 27
119 6 8 12 21 13 29 7 43 124 173 124 137z m-200 -8 c0 -2 -17 -15 -37 -28
-21 -12 -55 -38 -76 -57 -21 -18 -40 -31 -44 -28 -6 7 40 48 100 90 37 25 57
33 57 23z m-41 -109 c-44 -56 -85 -104 -92 -106 -6 -2 -1 9 11 25 12 16 42 57
66 90 52 74 78 102 88 97 4 -2 -28 -50 -73 -106z m-104 53 c-3 -5 -16 -15 -28
-21 -21 -10 -21 -9 2 10 25 23 36 27 26 11z m-65 -4 c0 -2 -12 -12 -27 -21
l-28 -18 19 21 c17 20 36 29 36 18z m717 -4 c8 -5 10 -21 6 -46 -6 -38 -6 -38
-19 -15 -15 26 -18 69 -6 69 4 0 12 -4 19 -8z m-797 -6 c0 -2 -7 -7 -16 -10
-8 -3 -12 -2 -9 4 6 10 25 14 25 6z m190 -53 c-30 -32 -58 -62 -63 -68 -5 -5
-4 1 3 14 11 22 98 111 108 111 3 0 -19 -26 -48 -57z m536 -178 c19 -51 26
-87 26 -134 -1 -35 -4 -66 -7 -69 -3 -3 -5 18 -5 46 0 35 -11 81 -36 144 -22
59 -37 117 -40 158 l-4 65 19 -70 c11 -38 32 -101 47 -140z m178 129 c22 -60
36 -104 31 -104 -6 0 -55 88 -75 136 l-20 47 22 -15 c13 -9 31 -37 42 -64z
m-475 -6 c-11 -27 -16 -54 -13 -60 4 -7 2 -8 -4 -4 -6 4 -18 -5 -26 -21 -17
-31 -21 -26 -7 9 16 39 24 62 27 77 7 37 27 72 35 60 4 -7 -1 -35 -12 -61z
m430 -18 c1 -8 15 -71 31 -139 17 -68 28 -126 25 -129 -3 -3 -6 -3 -8 -1 -5 8
-57 176 -69 222 -7 26 -16 47 -21 47 -4 0 -5 5 -2 10 3 6 1 10 -4 10 -14 0
-14 12 0 47 l11 28 18 -40 c10 -22 19 -47 19 -55z m103 -24 c12 -39 22 -73 23
-76 2 -5 9 -24 21 -55 8 -21 13 -55 8 -55 -6 0 -57 119 -78 185 -13 39 -27 79
-31 90 -8 20 -8 20 13 1 12 -11 32 -51 44 -90z m-507 -8 c-6 -78 -27 -161 -47
-183 -12 -14 -10 23 3 47 6 12 13 51 15 87 4 63 20 131 31 131 3 0 2 -37 -2
-82z m552 11 c12 -36 24 -76 27 -90 2 -13 9 -37 15 -53 7 -16 10 -30 8 -32 -4
-4 -84 187 -93 222 -5 20 -3 26 7 22 8 -2 24 -34 36 -69z m46 12 c26 -79 15
-85 -21 -12 -37 74 -37 73 -14 69 11 -2 24 -23 35 -57z m1794 27 c-3 -8 -6 -5
-6 6 -1 11 2 17 5 13 3 -3 4 -12 1 -19z m-2576 -11 c-10 -9 -11 -8 -5 6 3 10
9 15 12 12 3 -3 0 -11 -7 -18z m266 -79 c-3 -8 -6 -5 -6 6 -1 11 2 17 5 13 3
-3 4 -12 1 -19z m1587 -2 c-3 -9 -10 -13 -15 -10 -5 3 -3 11 4 19 15 16 19 13
11 -9z m-1718 -30 c-4 -18 -14 -40 -24 -47 -15 -13 -16 -12 -4 3 8 9 11 21 8
27 -7 10 14 64 22 57 2 -3 1 -21 -2 -40z m-285 11 c-10 -9 -11 -8 -5 6 3 10 9
15 12 12 3 -3 0 -11 -7 -18z m416 -49 c-2 -13 -4 -5 -4 17 -1 22 1 32 4 23 2
-10 2 -28 0 -40z m403 11 c0 -5 -7 -9 -15 -9 -15 0 -20 12 -9 23 8 8 24 -1 24
-14z m1887 -21 c-3 -7 -5 -2 -5 12 0 14 2 19 5 13 2 -7 2 -19 0 -25z m-2240
-40 c-3 -8 -6 -5 -6 6 -1 11 2 17 5 13 3 -3 4 -12 1 -19z m227 -12 c6 -26 5
-28 -8 -17 -13 11 -16 11 -16 1 0 -8 -2 -11 -5 -8 -3 3 0 17 6 32 14 30 14 30
23 -8z m-496 -1 c-3 -3 -9 2 -12 12 -6 14 -5 15 5 6 7 -7 10 -15 7 -18z m189
-47 c-3 -8 -6 -5 -6 6 -1 11 2 17 5 13 3 -3 4 -12 1 -19z m311 -29 c-3 -20 -5
-19 -9 9 -3 20 -2 29 4 23 5 -5 7 -19 5 -32z m-138 -86 c-8 -14 -9 -8 -6 27 6
65 9 70 13 28 2 -21 -1 -46 -7 -55z m250 83 c0 -3 -4 -8 -10 -11 -5 -3 -10 -1
-10 4 0 6 5 11 10 11 6 0 10 -2 10 -4z m60 -44 c0 -12 -3 -12 -15 -2 -8 7 -15
13 -15 15 0 1 7 2 15 2 8 0 15 -7 15 -15z m-256 -17 c3 -8 1 -15 -4 -15 -6 0
-10 7 -10 15 0 8 2 15 4 15 2 0 6 -7 10 -15z m266 -38 c0 -5 -4 -5 -10 -2 -5
3 -10 14 -10 23 0 15 2 15 10 2 5 -8 10 -19 10 -23z m795 -318 c-87 -191 -165
-341 -165 -318 0 3 22 50 48 104 27 55 77 160 112 233 35 72 65 130 67 128 2
-1 -26 -68 -62 -147z m111 -230 c-16 -4 -35 -5 -43 -1 -7 5 5 8 30 9 38 1 39
0 13 -8z m-141 -87 c-15 -12 -31 -19 -37 -16 -6 4 -8 2 -5 -3 7 -12 -27 -46
-48 -49 -21 -3 -19 5 7 35 13 14 6 11 -13 -7 -27 -24 -39 -30 -44 -21 -5 8 -4
10 3 5 7 -4 12 -2 12 4 0 11 32 60 63 94 17 20 17 19 11 -13 -5 -26 -4 -33 6
-29 8 2 16 10 18 18 3 8 0 10 -9 5 -8 -5 -6 0 4 12 9 11 14 24 10 29 -5 5 5
-2 20 -16 l28 -25 -26 -23z m-305 -263 c-36 -85 -55 -112 -35 -48 19 63 35
101 47 116 22 26 18 5 -12 -68z m478 -119 c2 -5 13 -6 25 -3 20 4 20 3 -3 -9
-16 -9 -36 -12 -57 -7 -27 6 -37 2 -58 -19 -14 -14 -24 -26 -22 -28 1 -2 19 1
38 5 46 10 50 -12 5 -30 -17 -7 -55 -28 -84 -47 -57 -38 -73 -38 -43 -1 10 13
31 47 47 74 50 91 44 86 99 79 27 -4 51 -10 53 -14z m-500 -12 c-6 -18 -25
-21 -25 -3 0 8 7 15 15 15 7 0 12 -5 10 -12z m2472 -2 c0 -2 -8 -10 -17 -17
-16 -13 -17 -12 -4 4 13 16 21 21 21 13z m-1976 -47 c-8 -14 -24 -10 -24 6 0
9 6 12 15 9 8 -4 12 -10 9 -15z m422 -25 c-3 -9 -6 -25 -7 -37 -1 -20 -2 -20
-9 3 -7 23 -8 23 -9 3 -1 -13 -10 -24 -22 -28 -17 -6 -19 -9 -8 -16 8 -5 9 -9
3 -9 -6 0 -16 -10 -21 -23 -6 -13 -18 -24 -26 -24 -14 0 5 33 78 133 14 19 29
18 21 -2z m268 8 c-6 -4 -13 -15 -17 -24 -3 -10 -15 -18 -25 -18 -10 0 -20 -7
-21 -15 -1 -8 -2 -24 -3 -34 -1 -11 -5 -19 -8 -19 -19 2 -30 -4 -30 -16 0 -17
-27 -29 -35 -15 -4 5 -1 8 7 7 7 -2 14 8 16 22 4 29 21 52 32 45 4 -3 7 3 6
12 -1 16 57 63 78 63 8 0 8 -2 0 -8z m-541 -126 c48 0 87 -3 87 -6 0 -3 -17
-23 -37 -45 -20 -22 -35 -40 -33 -40 1 0 -7 -19 -19 -42 -12 -24 -26 -43 -32
-43 -6 0 -8 -4 -5 -9 3 -5 -4 -20 -17 -33 -12 -14 -23 -31 -25 -38 -3 -14 -63
-100 -69 -100 -2 0 -1 4 2 10 3 5 8 19 10 30 2 12 16 35 30 51 14 17 25 36 25
43 0 8 9 25 21 40 11 14 17 30 14 36 -3 5 -1 10 4 10 6 0 11 9 11 20 0 11 7
23 16 27 8 3 13 12 10 19 -3 9 1 14 12 14 14 0 14 2 3 9 -8 5 -20 7 -27 4 -7
-3 -28 0 -46 6 -51 17 -179 14 -195 -4 -5 -4 -3 -5 3 -2 7 4 14 0 18 -8 3 -9
0 -15 -8 -15 -8 0 -21 -11 -30 -25 -9 -14 -23 -25 -31 -25 -8 0 -15 -5 -15
-10 0 -5 -3 -9 -7 -7 -5 1 -9 -1 -11 -5 -5 -15 -47 -54 -59 -54 -6 0 9 21 34
47 25 27 51 45 56 42 6 -3 7 -1 3 5 -3 6 16 34 44 62 l50 51 63 -8 c34 -4 101
-7 150 -7z m165 -45 c-7 -11 -15 -18 -19 -16 -4 3 -9 -8 -13 -23 -3 -15 -21
-44 -41 -66 -19 -21 -35 -42 -35 -47 0 -5 -5 -8 -11 -6 -6 1 -13 -6 -14 -17
-2 -10 -13 -25 -24 -33 -12 -8 -18 -19 -15 -25 4 -7 2 -8 -4 -4 -12 7 64 126
81 126 6 0 7 3 4 6 -9 10 73 124 90 124 11 0 11 -4 1 -19z m242 -13 c0 -5 -5
-8 -11 -8 -5 0 -7 5 -4 10 3 6 1 10 -5 10 -6 0 -8 5 -4 11 6 11 23 -6 24 -23z
m110 -33 c0 -16 -6 -25 -15 -25 -15 0 -21 31 -8 43 13 14 23 6 23 -18z m-241
-8 c0 -9 -2 -8 -6 1 -2 6 -10 9 -15 6 -7 -4 -8 -2 -4 5 9 13 26 5 25 -12z
m1071 -31 c0 -3 -4 -8 -10 -11 -5 -3 -10 -1 -10 4 0 6 5 11 10 11 6 0 10 -2
10 -4z m-780 -56 c0 -11 -4 -20 -10 -20 -5 0 -10 9 -10 20 0 11 5 20 10 20 6
0 10 -9 10 -20z m-986 -48 c3 -5 -1 -9 -9 -9 -8 0 -12 4 -9 9 3 4 7 8 9 8 2 0
6 -4 9 -8z m-43 -35 c-10 -9 -11 -8 -5 6 3 10 9 15 12 12 3 -3 0 -11 -7 -18z
m439 -21 c0 -2 -8 -10 -17 -17 -16 -13 -17 -12 -4 4 13 16 21 21 21 13z m1579
-15 c7 -5 9 -11 5 -14 -5 -3 -15 1 -22 9 -14 16 -5 18 17 5z m-2072 -19 c-10
-10 -14 -22 -10 -27 5 -4 2 -5 -5 -1 -11 6 -10 12 4 27 9 10 19 19 22 19 3 0
-2 -8 -11 -18z m2026 -27 c-3 -9 -8 -14 -10 -11 -3 3 -2 9 2 15 9 16 15 13 8
-4z m-3613 -55 c19 -27 19 -29 3 -23 -10 3 -15 3 -11 -1 3 -4 14 -9 23 -10 27
-4 115 -106 115 -133 0 -14 4 -21 10 -18 6 3 10 -1 10 -10 0 -17 16 -48 44
-85 13 -17 17 -19 12 -6 -5 16 -4 17 9 6 12 -10 15 -10 15 0 0 7 17 29 38 49
21 21 36 43 34 49 -2 7 2 12 8 12 6 0 18 7 26 15 9 8 23 15 31 15 19 0 15 -5
-121 -147 -49 -51 -95 -101 -102 -111 -29 -42 -55 -133 -66 -229 -8 -70 -15
-103 -24 -103 -7 0 -18 -16 -24 -35 -10 -31 -29 -48 -31 -27 0 4 -3 16 -5 27
-3 11 -6 36 -7 57 -1 20 -4 35 -8 33 -19 -12 -51 438 -39 545 5 41 9 83 10 93
0 10 4 15 10 12 6 -3 7 1 4 9 -6 16 1 46 10 46 3 0 14 -13 26 -30z m1901 -23
c-6 -8 -7 -18 -3 -22 4 -5 1 -5 -6 -1 -10 6 -10 11 -1 22 6 8 14 14 16 14 3 0
0 -6 -6 -13z m1641 -69 c-7 -7 -12 -8 -12 -2 0 14 12 26 19 19 2 -3 -1 -11 -7
-17z m-3319 -48 c6 -25 -15 -27 -38 -4 -12 13 -13 19 -4 30 14 17 34 4 42 -26z
m2682 -60 c3 -6 -1 -7 -9 -4 -18 7 -21 14 -7 14 6 0 13 -4 16 -10z m-1695
-100 c0 -5 -2 -10 -4 -10 -3 0 -8 5 -11 10 -3 6 -1 10 4 10 6 0 11 -4 11 -10z
m2560 -44 c0 -2 -7 -6 -15 -10 -8 -3 -15 -1 -15 4 0 6 7 10 15 10 8 0 15 -2
15 -4z m540 -33 c-11 -17 -11 -17 -6 0 3 10 6 24 7 30 0 9 2 9 5 0 3 -7 0 -20
-6 -30z m-563 -30 c-3 -10 -5 -4 -5 12 0 17 2 24 5 18 2 -7 2 -21 0 -30z m583
-18 c-14 -17 -50 -20 -50 -4 0 5 4 8 8 5 4 -2 14 -1 22 5 23 14 34 11 20 -6z
m-456 -33 c4 -7 -12 -51 -36 -96 -7 -12 -6 -16 1 -11 12 7 -6 -42 -21 -59 -4
-6 -8 -21 -8 -35 0 -15 -7 -35 -15 -45 -8 -11 -15 -15 -15 -10 0 6 4 14 9 19
6 6 11 29 12 52 2 23 6 40 9 38 4 -2 7 10 7 27 0 18 5 34 11 36 7 2 12 16 12
32 0 47 19 76 34 52z m536 -38 c0 -8 -4 -12 -10 -9 -5 3 -10 10 -10 16 0 5 5
9 10 9 6 0 10 -7 10 -16z m-25 -22 c-8 -8 -25 10 -19 20 4 6 9 5 15 -3 4 -7 6
-15 4 -17z m-456 -119 c0 -25 -1 -25 -8 -8 -5 11 -7 23 -4 28 8 14 13 7 12
-20z m641 -34 c0 -6 -4 -7 -10 -4 -5 3 -10 11 -10 16 0 6 5 7 10 4 6 -3 10
-11 10 -16z m-663 -61 c-3 -7 -5 -2 -5 12 0 14 2 19 5 13 2 -7 2 -19 0 -25z
m107 -13 c3 -9 0 -15 -9 -15 -9 0 -12 6 -9 15 4 8 7 15 9 15 2 0 5 -7 9 -15z
m322 -153 c-17 -16 -18 -16 -5 5 7 12 15 20 18 17 3 -2 -3 -12 -13 -22z m214
-22 c0 -5 -7 -10 -16 -10 -8 0 -12 5 -9 10 3 6 10 10 16 10 5 0 9 -4 9 -10z
m425 -7 c-2 -10 -4 -22 -4 -26 -1 -5 -5 -6 -10 -3 -5 3 -12 -1 -15 -10 -3 -8
-10 -12 -16 -9 -5 3 -10 1 -10 -4 0 -6 -6 -11 -12 -11 -7 1 -3 9 9 19 12 10
19 22 15 26 -4 5 -1 5 6 1 9 -5 15 -1 19 13 6 25 23 28 18 4z m-465 -33 c0 -5
-5 -10 -11 -10 -5 0 -7 5 -4 10 3 6 8 10 11 10 2 0 4 -4 4 -10z m-26 -29 c3
-5 -2 -15 -12 -22 -15 -12 -16 -12 -5 2 7 9 10 19 6 22 -3 4 -4 7 0 7 3 0 8
-4 11 -9z m401 -37 c-11 -8 -19 -21 -17 -28 3 -16 -25 -29 -33 -16 -5 8 50 60
63 60 4 0 -2 -7 -13 -16z m-65 -87 c0 -14 -6 -24 -14 -24 -11 0 -12 5 -3 24 5
13 12 23 14 23 1 0 3 -10 3 -23z m-32 -51 c-10 -7 -18 -20 -18 -27 0 -8 -9
-15 -21 -16 -18 -2 -17 1 10 28 17 16 34 29 38 29 5 0 0 -7 -9 -14z m-48 -60
c0 -2 -8 -10 -17 -17 -16 -13 -17 -12 -4 4 13 16 21 21 21 13z"></path>
      <path d="M4062 6667 c-20 -24 -82 -228 -88 -286 -6 -65 7 -96 53 -127 l32 -21
-20 -33 c-11 -18 -19 -33 -17 -34 30 -13 50 -40 104 -141 40 -77 65 -114 69
-104 3 8 -1 29 -10 45 -19 37 -19 50 0 34 10 -9 15 -9 15 -1 0 6 5 11 11 11 6
0 8 -7 5 -17 -6 -15 -5 -15 13 1 15 14 27 16 57 10 22 -5 46 -7 54 -6 13 3 13
2 0 -7 -8 -6 -11 -11 -6 -11 5 0 2 -8 -6 -17 -14 -16 -48 -77 -48 -86 0 -2 15
-4 33 -4 47 0 150 -21 156 -32 7 -10 140 -46 146 -39 6 5 -241 86 -275 90
l-25 3 30 27 c20 19 31 24 36 16 5 -8 20 -3 48 16 22 15 57 34 78 41 l38 13
12 -55 c19 -83 59 -136 111 -147 44 -9 55 -29 27 -50 -22 -16 -31 -73 -11 -73
8 0 14 3 14 6 -3 15 15 61 24 61 6 0 7 11 4 25 -6 23 -5 24 20 15 15 -6 35 -8
46 -4 23 7 48 -12 48 -38 0 -10 11 -29 25 -42 26 -25 34 -71 13 -78 -24 -8
-100 -9 -95 -1 3 4 -5 8 -16 9 -42 1 -107 15 -162 34 -64 22 -71 19 -17 -9 69
-35 172 -61 243 -61 65 0 200 36 256 69 25 15 12 13 -36 -4 -49 -17 -85 -10
-57 11 10 7 16 14 15 16 -5 8 13 48 23 48 6 0 7 5 2 13 -5 7 -1 4 8 -6 10 -11
15 -24 11 -30 -3 -6 -1 -7 6 -3 6 4 8 12 5 18 -4 6 1 6 14 -1 18 -10 20 -9 17
9 -2 11 -6 24 -9 29 -7 11 22 23 35 15 18 -11 78 19 84 43 4 18 12 23 33 21
15 -1 42 6 61 16 18 10 49 18 67 19 34 2 35 3 32 41 -3 35 -8 42 -48 63 -24
13 -47 27 -50 31 -3 4 -14 8 -25 10 -36 5 -44 8 -62 24 -33 29 -107 65 -178
86 -81 24 -228 52 -273 52 -17 0 -33 4 -37 9 -7 13 53 57 90 66 59 14 221 34
275 34 76 0 228 -38 342 -85 68 -29 78 -29 78 -7 0 15 2 15 13 2 6 -8 20 -21
30 -28 16 -13 17 -12 8 12 -26 67 -54 107 -123 172 -102 97 -246 214 -286 233
-36 18 -42 16 -202 -48 -65 -26 -152 -50 -275 -78 -77 -18 -106 -20 -200 -13
-119 9 -125 8 -170 -22 l-30 -21 24 27 c30 33 24 34 -38 2 -54 -27 -69 -23
-46 12 25 37 1 27 -49 -21 -25 -25 -48 -41 -51 -36 -3 5 17 39 45 75 54 72 59
88 17 55 -70 -56 -155 -215 -135 -254 9 -18 7 -18 -16 3 -21 20 -26 34 -26 70
0 51 38 211 65 279 18 44 16 63 -3 39z m804 -512 c103 -18 179 -42 258 -81 92
-45 64 -61 -42 -24 -92 33 -287 79 -368 86 -72 7 -86 17 -34 27 50 9 99 7 186
-8z m-63 -129 c6 -15 -11 -36 -28 -36 -20 0 -48 27 -41 38 10 17 63 15 69 -2z
m230 -83 c10 -3 17 -15 17 -29 0 -17 4 -22 15 -18 20 8 19 -9 -2 -28 -30 -26
-75 -45 -146 -61 l-67 -15 39 39 c41 39 81 106 81 135 0 15 2 15 23 0 12 -9
30 -19 40 -23z m-53 -257 c-5 -5 -10 -18 -10 -27 0 -12 -6 -16 -20 -12 -11 3
-20 0 -20 -6 0 -6 -4 -11 -9 -11 -17 0 -17 44 -1 70 12 20 12 23 1 15 -11 -6
-13 -4 -8 9 4 10 7 25 7 34 0 10 12 3 35 -23 25 -26 32 -42 25 -49z"></path>
      <path d="M5324 5852 c-56 -18 -102 -46 -93 -56 3 -3 46 12 95 34 91 40 90 51
-2 22z"></path>
      <path d="M4777 5747 c-2 -7 6 -18 19 -24 27 -13 32 -2 8 21 -19 19 -21 19 -27
3z"></path>
      <path d="M3550 5196 c0 -2 7 -9 15 -16 13 -11 14 -10 9 4 -5 14 -24 23 -24 12z"></path>
      <path d="M3759 5179 c-9 -5 -4 -10 17 -14 16 -4 35 -9 43 -11 11 -4 11 -1 2
10 -15 18 -45 26 -62 15z"></path>
      <path d="M3879 5107 c19 -20 37 -37 39 -37 11 0 -27 45 -49 59 -18 11 -16 6
10 -22z"></path>
      <path d="M6032 6214 c10 -10 20 -15 24 -12 3 4 -5 12 -18 18 -22 12 -22 12 -6
-6z"></path>
      <path d="M3097 5861 c-3 -14 2 -21 21 -26 35 -9 53 12 28 31 -27 19 -43 18
-49 -5z"></path>
      <path d="M3334 5744 c-18 -14 -18 -15 4 -4 12 6 22 13 22 15 0 8 -5 6 -26 -11z"></path>
      <path d="M6027 5666 c-10 -112 -9 -175 3 -156 14 22 21 130 12 185 l-8 50 -7
-79z"></path>
      <path d="M5397 3335 c-3 -18 1 -29 13 -35 15 -8 18 -6 16 14 0 13 -5 22 -10
18 -5 -3 -7 2 -3 11 3 10 3 17 -2 17 -5 0 -11 -11 -14 -25z"></path>
      <path d="M5365 3312 c2 -11 -2 -25 -9 -31 -10 -9 -11 -19 -2 -46 6 -19 15 -33
21 -31 5 2 9 8 8 13 -1 5 2 26 6 46 7 29 5 39 -10 53 -17 16 -18 15 -14 -4z"></path>
      <path d="M5317 2878 c-3 -8 5 -14 19 -14 20 -2 21 0 9 12 -17 17 -22 17 -28 2z"></path>
      <path d="M5320 2540 c0 -5 9 -10 20 -10 13 0 20 -7 20 -20 0 -23 15 -27 23 -6
6 15 -26 46 -48 46 -8 0 -15 -4 -15 -10z"></path>
      <path d="M6921 3496 c2 -2 15 -9 29 -15 24 -11 24 -11 6 3 -16 13 -49 24 -35
12z"></path>
      <path d="M6980 3466 c0 -2 7 -7 16 -10 8 -3 12 -2 9 4 -6 10 -25 14 -25 6z"></path>
      <path d="M6661 3294 c14 -18 82 -54 101 -54 6 0 -14 16 -46 35 -65 39 -74 42
-55 19z"></path>
      <path d="M7449 2573 c-13 -16 -12 -17 4 -4 16 13 21 21 13 21 -2 0 -10 -8 -17
-17z"></path>
      <path d="M7707 2153 c-4 -3 -7 -11 -7 -17 0 -6 5 -5 12 2 6 6 9 14 7 17 -3 3
-9 2 -12 -2z"></path>
      <path d="M5635 1920 c-3 -6 1 -7 9 -4 18 7 21 14 7 14 -6 0 -13 -4 -16 -10z"></path>
      <path d="M7612 1800 c0 -14 2 -19 5 -12 2 6 2 18 0 25 -3 6 -5 1 -5 -13z"></path>
      <path d="M8151 1793 c0 -13 -5 -23 -11 -23 -5 0 -7 8 -4 18 4 13 1 12 -14 -5
-11 -13 -23 -23 -27 -23 -3 0 -33 -27 -67 -60 -33 -33 -57 -60 -52 -60 5 0 -1
-6 -12 -14 -27 -19 -78 -86 -65 -86 5 0 16 6 23 13 7 7 40 33 73 59 100 77
167 152 162 179 -4 23 -4 23 -6 2z"></path>
      <path d="M5840 1657 c0 -14 6 -27 13 -30 10 -4 13 2 9 19 -6 33 -22 41 -22 11z"></path>
      <path d="M5893 1540 c0 -25 2 -35 4 -22 2 12 2 32 0 45 -2 12 -4 2 -4 -23z"></path>
      <path d="M6080 1350 c0 -5 9 -10 20 -10 11 0 20 5 20 10 0 6 -9 10 -20 10 -11
0 -20 -4 -20 -10z"></path>
      <path d="M6621 1144 c0 -11 3 -14 6 -6 3 7 2 16 -1 19 -3 4 -6 -2 -5 -13z"></path>
      <path d="M6552 1121 c-11 -7 -11 -9 0 -14 9 -3 15 1 15 9 0 8 -1 14 -1 14 -1
0 -7 -4 -14 -9z"></path>
      <path d="M6967 1063 c-3 -5 -1 -17 4 -28 6 -17 7 -16 6 8 -1 28 -3 32 -10 20z"></path>
      <path d="M6486 1032 c-4 -7 -4 -17 0 -24 4 -7 11 -28 15 -48 l7 -35 0 40 c1
48 -11 84 -22 67z"></path>
      <path d="M6951 1024 c0 -11 3 -14 6 -6 3 7 2 16 -1 19 -3 4 -6 -2 -5 -13z"></path>
      <path d="M7123 975 c-3 -9 -3 -18 -1 -21 3 -3 8 4 11 16 6 23 -1 27 -10 5z"></path>
      <path d="M6988 973 c7 -3 16 -2 19 1 4 3 -2 6 -13 5 -11 0 -14 -3 -6 -6z"></path>
      <path d="M7170 786 c0 -9 30 -14 35 -6 4 6 -3 10 -14 10 -12 0 -21 -2 -21 -4z"></path>
      <path d="M7838 774 c-5 -4 -8 -39 -8 -78 0 -49 3 -67 10 -60 6 6 10 40 8 78
-2 37 -6 64 -10 60z"></path>
      <path d="M7771 682 c0 -16 3 -21 6 -12 3 8 10 18 15 21 5 3 3 9 -6 12 -12 5
-16 0 -15 -21z"></path>
      <path d="M7747 683 c-10 -10 -8 -33 2 -33 6 0 9 9 8 20 -1 23 -1 22 -10 13z"></path>
    </g>
  </symbol>
  <symbol xmlns="http://www.w3.org/2000/svg" viewBox="0 0 512 512" id="contact">
    <path d="M451 374c-15.88-16-54.34-39.35-73-48.76-24.3-12.24-26.3-13.24-45.4.95-12.74 9.47-21.21 17.93-36.12 14.75s-47.31-21.11-75.68-49.39-47.34-61.62-50.53-76.48 5.41-23.23 14.79-36c13.22-18 12.22-21 .92-45.3-8.81-18.9-32.84-57-48.9-72.8C119.9 44 119.9 47 108.83 51.6A160.15 160.15 0 0083 65.37C67 76 58.12 84.83 51.91 98.1s-9 44.38 23.07 102.64 54.57 88.05 101.14 134.49S258.5 406.64 310.85 436c64.76 36.27 89.6 29.2 102.91 23s22.18-15 32.83-31a159.09 159.09 0 0013.8-25.8C465 391.17 468 391.17 451 374z" fill="none" stroke="currentColor" stroke-miterlimit="10" stroke-width="32"></path>
  </symbol>
  <symbol xmlns="http://www.w3.org/2000/svg" viewBox="0 0 512 512" id="home">
    <path d="M80 212v236a16 16 0 0016 16h96V328a24 24 0 0124-24h80a24 24 0 0124 24v136h96a16 16 0 0016-16V212" fill="none" stroke="currentColor" stroke-linecap="round" stroke-linejoin="round" stroke-width="32"></path>
    <path d="M480 256L266.89 52c-5-5.28-16.69-5.34-21.78 0L32 256M400 179V64h-48v69" fill="none" stroke="currentColor" stroke-linecap="round" stroke-linejoin="round" stroke-width="32"></path>
  </symbol>
  <symbol xmlns="http://www.w3.org/2000/svg" viewBox="0 0 512 512" id="login">
    <path d="M336 208v-95a80 80 0 00-160 0v95" fill="none" stroke="currentColor" stroke-linecap="round" stroke-linejoin="round" stroke-width="32"></path>
    <rect x="96" y="208" width="320" height="272" rx="48" ry="48" fill="none" stroke="currentColor" stroke-linecap="round" stroke-linejoin="round" stroke-width="32"></rect>
  </symbol>
</svg>