<svg width="0" height="0" class="hidden">
  <symbol xmlns="http://www.w3.org/2000/svg" viewBox="0 0 512 512" id="about">
    <rect x="96" y="32" width="320" height="448" rx="48" fill="none" stroke="currentColor" stroke-linejoin="round" stroke-width="32"></rect>
    <path fill="none" stroke="currentColor" stroke-linecap="round" stroke-linejoin="round" stroke-width="32" d="M208 80h96"></path>
    <path d="M333.48 284.51A39.65 39.65 0 00304 272c-11.6 0-22.09 4.41-29.54 12.43s-11.2 19.12-10.34 31C265.83 338.91 283.72 358 304 358s38.14-19.09 39.87-42.55c.88-11.78-2.82-22.77-10.39-30.94zM371.69 448H236.31a12.05 12.05 0 01-9.31-4.17 13 13 0 01-2.76-10.92c3.25-17.56 13.38-32.31 29.3-42.66C267.68 381.06 285.6 376 304 376s36.32 5.06 50.46 14.25c15.92 10.35 26.05 25.1 29.3 42.66a13 13 0 01-2.76 10.92 12.05 12.05 0 01-9.31 4.17z"></path>
  </symbol>
  <symbol xmlns="http://www.w3.org/2000/svg" viewBox="0 0 512 512" id="contact">
    <path d="M451 374c-15.88-16-54.34-39.35-73-48.76-24.3-12.24-26.3-13.24-45.4.95-12.74 9.47-21.21 17.93-36.12 14.75s-47.31-21.11-75.68-49.39-47.34-61.62-50.53-76.48 5.41-23.23 14.79-36c13.22-18 12.22-21 .92-45.3-8.81-18.9-32.84-57-48.9-72.8C119.9 44 119.9 47 108.83 51.6A160.15 160.15 0 0083 65.37C67 76 58.12 84.83 51.91 98.1s-9 44.38 23.07 102.64 54.57 88.05 101.14 134.49S258.5 406.64 310.85 436c64.76 36.27 89.6 29.2 102.91 23s22.18-15 32.83-31a159.09 159.09 0 0013.8-25.8C465 391.17 468 391.17 451 374z" fill="none" stroke="currentColor" stroke-miterlimit="10" stroke-width="32"></path>
  </symbol>
  <symbol xmlns="http://www.w3.org/2000/svg" viewBox="0 0 512 512" id="home">
    <path d="M80 212v236a16 16 0 0016 16h96V328a24 24 0 0124-24h80a24 24 0 0124 24v136h96a16 16 0 0016-16V212" fill="none" stroke="currentColor" stroke-linecap="round" stroke-linejoin="round" stroke-width="32"></path>
    <path d="M480 256L266.89 52c-5-5.28-16.69-5.34-21.78 0L32 256M400 179V64h-48v69" fill="none" stroke="currentColor" stroke-linecap="round" stroke-linejoin="round" stroke-width="32"></path>
  </symbol>
  <symbol xmlns="http://www.w3.org/2000/svg" viewBox="0 0 512 512" id="login">
    <path d="M336 208v-95a80 80 0 00-160 0v95" fill="none" stroke="currentColor" stroke-linecap="round" stroke-linejoin="round" stroke-width="32"></path>
    <rect x="96" y="208" width="320" height="272" rx="48" ry="48" fill="none" stroke="currentColor" stroke-linecap="round" stroke-linejoin="round" stroke-width="32"></rect>
  </symbol>
  <symbol xmlns="http://www.w3.org/2000/svg" viewBox="0 0 512 512" id="tiktok">
    <path d="M412.19 118.66a109.27 109.27 0 01-9.45-5.5 132.87 132.87 0 01-24.27-20.62c-18.1-20.71-24.86-41.72-27.35-56.43h.1C349.14 23.9 350 16 350.13 16h-82.44v318.78c0 4.28 0 8.51-.18 12.69 0 .52-.05 1-.08 1.56 0 .23 0 .47-.05.71v.18a70 70 0 01-35.22 55.56 68.8 68.8 0 01-34.11 9c-38.41 0-69.54-31.32-69.54-70s31.13-70 69.54-70a68.9 68.9 0 0121.41 3.39l.1-83.94a153.14 153.14 0 00-118 34.52 161.79 161.79 0 00-35.3 43.53c-3.48 6-16.61 30.11-18.2 69.24-1 22.21 5.67 45.22 8.85 54.73v.2c2 5.6 9.75 24.71 22.38 40.82A167.53 167.53 0 00115 470.66v-.2l.2.2c39.91 27.12 84.16 25.34 84.16 25.34 7.66-.31 33.32 0 62.46-13.81 32.32-15.31 50.72-38.12 50.72-38.12a158.46 158.46 0 0027.64-45.93c7.46-19.61 9.95-43.13 9.95-52.53V176.49c1 .6 14.32 9.41 14.32 9.41s19.19 12.3 49.13 20.31c21.48 5.7 50.42 6.9 50.42 6.9v-81.84c-10.14 1.1-30.73-2.1-51.81-12.61z"></path>
  </symbol>
  <symbol xmlns="http://www.w3.org/2000/svg" viewBox="0 0 512 512" id="twitter">
    <path d="M496 109.5a201.8 201.8 0 01-56.55 15.3 97.51 97.51 0 0043.33-53.6 197.74 197.74 0 01-62.56 23.5A99.14 99.14 0 00348.31 64c-54.42 0-98.46 43.4-98.46 96.9a93.21 93.21 0 002.54 22.1 280.7 280.7 0 01-203-101.3A95.69 95.69 0 0036 130.4c0 33.6 17.53 63.3 44 80.7A97.5 97.5 0 0135.22 199v1.2c0 47 34 86.1 79 95a100.76 100.76 0 01-25.94 3.4 94.38 94.38 0 01-18.51-1.8c12.51 38.5 48.92 66.5 92.05 67.3A199.59 199.59 0 0139.5 405.6a203 203 0 01-23.5-1.4A278.68 278.68 0 00166.74 448c181.36 0 280.44-147.7 280.44-275.8 0-4.2-.11-8.4-.31-12.5A198.48 198.48 0 00496 109.5z"></path>
  </symbol>
  <symbol xmlns="http://www.w3.org/2000/svg" viewBox="0 0 512 512" id="instagram">
    <path d="M349.33 69.33a93.62 93.62 0 0193.34 93.34v186.66a93.62 93.62 0 01-93.34 93.34H162.67a93.62 93.62 0 01-93.34-93.34V162.67a93.62 93.62 0 0193.34-93.34h186.66m0-37.33H162.67C90.8 32 32 90.8 32 162.67v186.66C32 421.2 90.8 480 162.67 480h186.66C421.2 480 480 421.2 480 349.33V162.67C480 90.8 421.2 32 349.33 32z"></path>
    <path d="M377.33 162.67a28 28 0 1128-28 27.94 27.94 0 01-28 28zM256 181.33A74.67 74.67 0 11181.33 256 74.75 74.75 0 01256 181.33m0-37.33a112 112 0 10112 112 112 112 0 00-112-112z"></path>
  </symbol>
    <symbol xmlns="http://www.w3.org/2000/svg" viewBox="0 0 512 512" id="facebook">
    <path d="M480 257.35c0-123.7-100.3-224-224-224s-224 100.3-224 224c0 111.8 81.9 204.47 189 221.29V322.12h-56.89v-64.77H221V208c0-56.13 33.45-87.16 84.61-87.16 24.51 0 50.15 4.38 50.15 4.38v55.13H327.5c-27.81 0-36.51 17.26-36.51 35v42h62.12l-9.92 64.77H291v156.54c107.1-16.81 189-109.48 189-221.31z" fill-rule="evenodd"></path>
  </symbol>
  <symbol xmlns="http://www.w3.org/2000/svg" viewBox="0 0 512 512" id="google">
    <path d="M473.16 221.48l-2.26-9.59H262.46v88.22H387c-12.93 61.4-72.93 93.72-121.94 93.72-35.66 0-73.25-15-98.13-39.11a140.08 140.08 0 01-41.8-98.88c0-37.16 16.7-74.33 41-98.78s61-38.13 97.49-38.13c41.79 0 71.74 22.19 82.94 32.31l62.69-62.36C390.86 72.72 340.34 32 261.6 32c-60.75 0-119 23.27-161.58 65.71C58 139.5 36.25 199.93 36.25 256s20.58 113.48 61.3 155.6c43.51 44.92 105.13 68.4 168.58 68.4 57.73 0 112.45-22.62 151.45-63.66 38.34-40.4 58.17-96.3 58.17-154.9 0-24.67-2.48-39.32-2.59-39.96z"></path>
  </symbol>
  <symbol xmlns="http://www.w3.org/2000/svg" viewBox="0 0 512 512" id="projects">
    <path fill="none" stroke="currentColor" stroke-linecap="round" stroke-linejoin="round" stroke-width="32" d="M160 368L32 256l128-112M352 368l128-112-128-112"></path>
  </symbol>
  <symbol xmlns="http://www.w3.org/2000/svg" viewBox="0 0 512 512" id="arrow-forward">
    <path fill="none" stroke="currentColor" stroke-linecap="round" stroke-linejoin="round" stroke-width="48" d="M268 112l144 144-144 144M392 256H100"></path>
  </symbol>
</svg>